# xmcd
#
# Track frame offsets:
#	150
#	14900
#	29108
#	44328
#	70578
#	91520
#	103133
#	121161
#	145871
#	164175
#	184795
#
# Disc length: 2890 seconds
#
# Revision: 0
# Processed by: cddbd v1.5.2PL0 Copyright (c) Steve Scherf et al.
# Submitted via: EasyCDDAExtractor 10.2.0.1
#
DISCID=9b0b480b
DTITLE=The Muggs
DYEAR=1900
DGENRE=
TTITLE0=Need Ya Baby
TTITLE1=Gonna Need My Help
TTITLE2=Rollin' B-Side Blues
TTITLE3="Monster"
TTITLE4=Should've Learned My Lesson
TTITLE5=White Boy Blues
TTITLE6=Hard Love
TTITLE7=Said and Done
TTITLE8=Underway
TTITLE9=If You Please
TTITLE10=Doc Mode
EXTD=
EXTT0=
EXTT1=
EXTT2=
EXTT3=
EXTT4=
EXTT5=
EXTT6=
EXTT7=
EXTT8=
EXTT9=
EXTT10=
PLAYORDER=
